<?xml version="1.0" encoding="UTF-8" standalone="no"?>
<!-- Created with Inkscape (http://www.inkscape.org/) -->

<svg
   width="3.8011549mm"
   height="25.15852mm"
   viewBox="0 0 3.8011549 25.15852"
   version="1.1"
   id="svg5"
   xml:space="preserve"
   sodipodi:docname="BorderWaveUpsideDown.svg"
   xmlns:inkscape="http://www.inkscape.org/namespaces/inkscape"
   xmlns:sodipodi="http://sodipodi.sourceforge.net/DTD/sodipodi-0.dtd"
   xmlns:xlink="http://www.w3.org/1999/xlink"
   xmlns="http://www.w3.org/2000/svg"
   xmlns:svg="http://www.w3.org/2000/svg"><sodipodi:namedview
     id="namedview7"
     pagecolor="#ffffff"
     bordercolor="#000000"
     borderopacity="0.25"
     inkscape:showpageshadow="2"
     inkscape:pageopacity="0.0"
     inkscape:pagecheckerboard="0"
     inkscape:deskcolor="#d1d1d1"
     inkscape:document-units="mm"
     showgrid="false" /><defs
     id="defs2"><linearGradient
       inkscape:collect="always"
       id="linearGradient2115"><stop
         style="stop-color:#000000;stop-opacity:1;"
         offset="0"
         id="stop2111" /><stop
         style="stop-color:#000000;stop-opacity:0;"
         offset="1"
         id="stop2113" /></linearGradient><linearGradient
       inkscape:collect="always"
       xlink:href="#linearGradient2115"
       id="linearGradient2117"
       x1="100.87738"
       y1="377.1937"
       x2="100.87738"
       y2="267.28638"
       gradientUnits="userSpaceOnUse" /></defs><g
     inkscape:label="Layer 1"
     inkscape:groupmode="layer"
     id="layer1"
     transform="translate(-38.487499,-103.61985)"><g
       inkscape:label="Layer 1"
       id="layer1-3"
       transform="matrix(0,-0.14619826,-0.14587376,0,80.902366,130.96607)"><path
         style="display:inline;fill:#000000;fill-opacity:1;stroke:none;stroke-width:0.264583;stroke-opacity:1"
         d="M 15.221907,290.50623 H 187.04885 c 0,0 -3.09598,-4.12798 -4.64397,-4.12798 -1.54799,0 -4.38597,2.06399 -4.38597,2.06399 0,0 -7.73996,1.54797 -7.99795,-0.51602 -0.258,-2.06396 -37.66777,-3.86995 -31.73381,-0.51599 5.93397,3.35399 -20.12387,-3.35396 -27.86383,-2.06399 -7.73995,1.29 -12.899918,4.12798 -17.027894,2.838 -4.127974,-1.29 -14.705909,-2.58 -14.705909,-2.58 0,0 -8.513948,1.548 -7.739952,2.838 0.773994,1.28997 -23.735855,0 -20.123877,-1.806 3.611978,-1.80599 -22.445861,-2.32198 -22.961859,0 -0.515996,2.32199 -12.383924,-2.83797 -12.641922,0 -0.257999,2.83798 0,3.86999 0,3.86999 z"
         id="path1479" /><rect
         style="fill:url(#linearGradient2117);fill-opacity:1;stroke:none;stroke-width:0.270124;stroke-opacity:1"
         id="rect2107"
         width="171.56894"
         height="26.05784"
         x="14.963906"
         y="264.70636" /></g></g></svg>
