<?xml version="1.0" encoding="UTF-8" standalone="no"?>
<!-- Created with Inkscape (http://www.inkscape.org/) -->

<svg
   width="208.33783mm"
   height="167.10811mm"
   viewBox="0 0 208.33783 167.10811"
   version="1.1"
   id="svg5"
   xml:space="preserve"
   inkscape:export-filename="ABLV1.svg"
   inkscape:export-xdpi="96"
   inkscape:export-ydpi="96"
   xmlns:inkscape="http://www.inkscape.org/namespaces/inkscape"
   xmlns:sodipodi="http://sodipodi.sourceforge.net/DTD/sodipodi-0.dtd"
   xmlns="http://www.w3.org/2000/svg"
   xmlns:svg="http://www.w3.org/2000/svg"><sodipodi:namedview
     id="namedview7"
     pagecolor="#ffffff"
     bordercolor="#000000"
     borderopacity="0.25"
     inkscape:showpageshadow="2"
     inkscape:pageopacity="0.0"
     inkscape:pagecheckerboard="0"
     inkscape:deskcolor="#d1d1d1"
     inkscape:document-units="mm"
     showgrid="false" /><defs
     id="defs2" /><g
     inkscape:label="Layer 1"
     inkscape:groupmode="layer"
     id="layer1"
     transform="translate(-0.72972967,-37.945948)"><rect
       style="fill:#ff00ff;stroke-width:0.264583"
       id="rect545"
       width="208.33783"
       height="167.10811"
       x="0.72972971"
       y="37.945946"
       rx="0"
       ry="0" /><g
       transform="matrix(0.01241324,0,0,-0.01089796,27.120302,184.67524)"
       fill="#000000"
       stroke="none"
       id="g262"
       style="fill:#ffffff"><path
         d="m 518,11732 c -175,-26 -318,-49 -318,-53 0,-5 3853,-2548 3944,-2603 l 31,-18 -25,23 c -14,13 -559,481 -1210,1040 l -1185,1016 -445,321 c -245,177 -452,321 -460,321 -8,-1 -158,-22 -332,-47 z"
         id="path134"
         style="fill:#ffffff" /><path
         d="m 11489,11458 -445,-323 -1190,-1019 C 8705,9131 8608,9047 8640,9066 c 8,4 814,534 1790,1177 976,642 1866,1228 1977,1300 111,73 202,134 202,137 1,3 -140,25 -312,48 -171,24 -323,46 -337,48 -20,3 -114,-60 -471,-318 z"
         id="path136"
         style="fill:#ffffff" /><path
         d="m 1495,11414 400,-268 345,-28 c 190,-15 348,-26 352,-25 3,1 -68,83 -158,182 l -164,180 -112,22 c -62,12 -313,60 -558,107 -245,47 -458,89 -475,92 -18,3 132,-103 370,-262 z"
         id="path138"
         style="fill:#ffffff" /><path
         d="m 11103,11566 -571,-111 -165,-180 c -90,-99 -162,-181 -158,-182 3,-1 161,10 351,25 l 345,28 400,267 c 220,147 393,267 385,266 -8,-1 -272,-51 -587,-113 z"
         id="path140"
         style="fill:#ffffff" /><path
         d="m 6,11498 c 3,-35 18,-211 32,-392 l 27,-329 165,-53 c 91,-29 421,-134 735,-234 314,-100 772,-247 1019,-326 248,-79 451,-142 453,-141 2,3 -2365,1499 -2414,1525 l -24,13 z"
         id="path142"
         style="fill:#ffffff" /><path
         d="m 11578,10793 c -669,-422 -1216,-769 -1214,-770 2,-2 359,111 2191,696 l 180,58 32,374 c 18,206 31,382 30,392 -1,13 -288,-163 -1219,-750 z"
         id="path144"
         style="fill:#ffffff" /><path
         d="m 2335,10922 c 99,-100 1938,-1802 1942,-1798 4,4 -238,846 -313,1091 l -24,80 -493,306 -492,307 -295,27 c -162,14 -313,29 -335,32 l -40,5 z"
         id="path146"
         style="fill:#ffffff" /><path
         d="m 10152,10936 -312,-31 -489,-305 -490,-305 -20,-65 c -64,-207 -321,-1103 -318,-1107 4,-3 1820,1677 1937,1793 49,49 52,54 30,53 -14,-1 -166,-16 -338,-33 z"
         id="path148"
         style="fill:#ffffff" /><path
         d="m 563,10437 c 3,-6 111,-185 240,-397 l 235,-384 1093,-112 c 602,-62 1119,-115 1149,-118 66,-7 149,-38 -1410,539 -1407,521 -1313,487 -1307,472 z"
         id="path150"
         style="fill:#ffffff" /><path
         d="m 11515,10181 c -396,-147 -1018,-377 -1382,-511 -364,-135 -660,-246 -659,-247 1,-1 92,7 201,18 110,12 625,65 1144,118 l 945,97 239,392 c 132,216 238,394 236,396 -2,2 -328,-116 -724,-263 z"
         id="path152"
         style="fill:#ffffff" /><path
         d="M 8530,9996 8315,9813 7495,8294 C 6491,6435 6569,6580 6573,6580 c 3,0 410,539 907,1198 l 902,1197 149,490 c 177,580 218,715 216,715 -1,0 -99,-83 -217,-184 z"
         id="path154"
         style="fill:#ffffff" /><path
         d="m 4060,10164 c 0,-7 240,-802 326,-1079 l 34,-110 882,-1172 c 486,-644 893,-1184 906,-1200 32,-39 66,-102 -884,1656 l -839,1555 -194,165 c -207,178 -231,196 -231,185 z"
         id="path156"
         style="fill:#ffffff" /><path
         d="m 4653,9778 c 11,-29 1619,-3033 1629,-3043 7,-6 7,-2 0,10 -6,12 -135,304 -287,650 -384,873 -732,1657 -799,1800 -54,114 -63,126 -164,228 -163,165 -386,374 -379,355 z"
         id="path158"
         style="fill:#ffffff" /><path
         d="m 7906,9558 -240,-233 -52,-110 C 7501,8975 6518,6748 6523,6743 c 2,-1 248,455 547,1015 300,559 667,1245 816,1525 149,279 269,507 265,507 -3,0 -114,-105 -245,-232 z"
         id="path160"
         style="fill:#ffffff" /><path
         d="m 793,9438 c 3,-13 25,-126 48,-253 23,-126 44,-232 46,-234 4,-6 73,5 591,90 232,38 614,101 850,139 235,39 460,75 499,82 40,6 71,13 69,15 -2,2 -2078,183 -2104,183 -2,0 -2,-10 1,-22 z"
         id="path162"
         style="fill:#ffffff" /><path
         d="m 11640,9430 c -173,-16 -479,-42 -680,-59 -201,-18 -520,-45 -709,-61 -189,-17 -346,-31 -347,-33 -2,-2 139,-26 314,-55 1628,-267 1658,-272 1680,-272 16,0 23,27 61,228 23,125 45,239 48,255 7,33 45,33 -367,-3 z"
         id="path164"
         style="fill:#ffffff" /><path
         d="m 3541,9333 c 6,-14 2622,-3274 2625,-3270 8,8 44,310 38,320 -35,58 -1862,2491 -1882,2505 -20,14 -550,321 -776,450 -5,3 -7,1 -5,-5 z"
         id="path166"
         style="fill:#ffffff" /><path
         d="m 8865,9114 c -215,-124 -400,-235 -411,-247 -19,-19 -1837,-2451 -1857,-2483 -3,-6 3,-82 15,-168 20,-149 22,-156 38,-139 39,40 2611,3255 2608,3258 -2,2 -179,-98 -393,-221 z"
         id="path168"
         style="fill:#ffffff" /><path
         d="m 3220,9235 c -74,-13 -315,-53 -535,-89 -1024,-168 -1559,-257 -1561,-259 -3,-4 -151,-992 -149,-995 2,-2 2342,1313 2400,1349 30,18 30,19 5,18 -14,-1 -86,-12 -160,-24 z"
         id="path170"
         style="fill:#ffffff" /><path
         d="m 9401,9256 c 8,-8 2422,-1366 2425,-1363 2,2 -147,991 -150,994 -2,3 -644,109 -1433,238 -908,149 -852,140 -842,131 z"
         id="path172"
         style="fill:#ffffff" /><path
         d="m 3480,9149 c -25,-16 -188,-115 -363,-221 -297,-179 -317,-193 -300,-208 10,-8 144,-123 298,-255 479,-412 2941,-2509 3000,-2555 23,-18 135,-160 -1345,1709 -679,858 -1237,1560 -1240,1560 -3,0 -25,-13 -50,-30 z"
         id="path174"
         style="fill:#ffffff" /><path
         d="M 8130,7744 C 7506,6955 6921,6216 6831,6102 c -91,-114 -155,-200 -144,-192 12,8 140,116 285,240 144,124 704,600 1243,1059 1636,1393 1788,1525 1773,1534 -129,79 -720,437 -721,436 -1,0 -513,-646 -1137,-1435 z"
         id="path176"
         style="fill:#ffffff" /><path
         d="m 2700,8576 c 0,-3 290,-408 644,-899 l 644,-893 204,-99 c 112,-54 603,-296 1092,-537 489,-241 891,-437 892,-435 1,1 -84,70 -189,153 -148,115 -2979,2455 -3234,2672 -29,24 -53,42 -53,38 z"
         id="path178"
         style="fill:#ffffff" /><path
         d="M 8565,7309 C 7724,6611 6942,5966 6829,5877 c -114,-89 -206,-163 -205,-164 2,-2 495,239 1096,535 l 1094,538 245,340 c 135,186 426,590 647,897 222,306 400,557 396,556 -4,0 -695,-572 -1537,-1270 z"
         id="path180"
         style="fill:#ffffff" /><path
         d="m 1933,8158 c -260,-105 -473,-193 -473,-197 0,-3 222,-117 493,-254 270,-136 773,-388 1117,-561 344,-173 626,-313 628,-312 2,3 -1235,1456 -1271,1493 l -22,22 z"
         id="path182"
         style="fill:#ffffff" /><path
         d="m 9746,7593 c -355,-416 -644,-759 -642,-761 3,-2 100,46 218,106 159,82 1464,740 1982,999 l 49,25 -439,177 c -241,97 -458,184 -481,194 l -41,16 z"
         id="path184"
         style="fill:#ffffff" /><path
         d="m 1065,7348 c 4,-200 8,-364 9,-365 2,-2 257,-24 1286,-113 250,-22 616,-53 813,-70 197,-17 363,-30 368,-28 5,2 -42,22 -104,45 -61,23 -263,99 -447,168 -346,131 -1019,385 -1594,601 -181,68 -331,124 -334,124 -2,0 -1,-163 3,-362 z"
         id="path186"
         style="fill:#ffffff" /><path
         d="m 11475,7614 c -278,-106 -1070,-405 -1767,-667 -251,-95 -452,-173 -448,-175 5,-2 116,6 247,17 131,12 445,39 698,61 1288,111 1519,131 1522,133 8,8 15,727 7,726 -5,0 -121,-43 -259,-95 z"
         id="path188"
         style="fill:#ffffff" /><path
         d="m 760,6815 c 0,-5 242,-679 245,-683 2,-2 198,39 1085,228 179,38 547,117 819,175 272,58 497,107 499,110 3,3 -5,5 -18,5 -26,0 -2473,156 -2567,164 -35,3 -63,3 -63,1 z"
         id="path190"
         style="fill:#ffffff" /><path
         d="m 11975,6814 c -16,-2 -109,-8 -205,-14 -96,-6 -242,-15 -325,-21 -399,-26 -2014,-129 -2035,-129 -13,0 -21,-2 -18,-5 4,-4 423,-95 1038,-225 102,-21 450,-96 774,-165 324,-69 590,-124 592,-123 3,4 235,646 242,671 3,12 -1,17 -14,15 -11,0 -32,-2 -49,-4 z"
         id="path192"
         style="fill:#ffffff" /><path
         d="m 3668,6588 c -157,-173 -308,-349 -308,-358 0,-6 4,-10 8,-10 4,0 174,-38 377,-84 773,-177 1400,-320 1675,-382 525,-120 633,-144 636,-141 5,5 -2284,1067 -2300,1067 -2,0 -41,-42 -88,-92 z"
         id="path194"
         style="fill:#ffffff" /><path
         d="m 8810,6575 c -124,-56 -551,-255 -950,-440 -399,-185 -814,-378 -922,-428 -108,-50 -196,-93 -194,-94 3,-3 262,55 1079,241 634,145 868,199 1232,281 209,47 384,87 389,89 13,3 -387,457 -403,455 -3,0 -107,-47 -231,-104 z"
         id="path196"
         style="fill:#ffffff" /><path
         d="m 3175,6450 c -66,-21 -331,-102 -590,-181 -258,-78 -474,-145 -478,-149 -5,-5 130,-53 300,-108 348,-114 453,-146 457,-141 5,6 378,509 420,567 21,29 32,52 24,51 -7,0 -67,-18 -133,-39 z"
         id="path198"
         style="fill:#ffffff" /><path
         d="m 9487,6478 c 6,-7 108,-146 228,-308 120,-162 219,-297 221,-299 5,-6 49,7 432,132 188,61 337,114 330,118 -7,3 -150,48 -318,99 -168,50 -436,132 -597,181 -161,49 -295,89 -299,89 -3,0 -2,-6 3,-12 z"
         id="path200"
         style="fill:#ffffff" /><path
         d="m 3037,5838 c -176,-117 -315,-213 -310,-215 4,-1 166,-9 358,-18 193,-8 548,-24 790,-35 242,-11 645,-29 895,-40 250,-11 554,-24 675,-30 121,-5 281,-12 355,-15 74,-3 164,-8 200,-11 74,-7 77,1 4,15 -27,6 -240,51 -474,101 -234,50 -679,145 -990,211 -311,66 -691,147 -845,180 -154,33 -293,62 -310,65 -26,4 -73,-23 -348,-208 z"
         id="path202"
         style="fill:#ffffff" /><path
         d="m 9325,6029 c -44,-10 -280,-61 -525,-113 -245,-52 -583,-124 -752,-160 -732,-156 -933,-199 -1088,-232 -220,-46 -245,-54 -150,-48 41,2 181,9 310,14 129,6 334,14 455,20 121,5 627,28 1125,50 1235,55 1375,61 1378,64 7,7 -636,426 -653,425 -11,-1 -56,-10 -100,-20 z"
         id="path204"
         style="fill:#ffffff" /><path
         d="m 1932,5546 -90,-151 42,-3 c 44,-4 1169,44 1275,54 61,6 34,12 -495,119 -307,62 -578,118 -601,123 l -42,10 z"
         id="path206"
         style="fill:#ffffff" /><path
         d="m 10735,5688 c -22,-5 -292,-61 -599,-123 -530,-107 -556,-113 -495,-119 106,-10 1231,-58 1276,-54 l 41,3 -85,145 c -47,80 -88,148 -91,151 -4,3 -25,2 -47,-3 z"
         id="path208"
         style="fill:#ffffff" /><path
         d="m 4849,5386 c -2,-3 -189,-59 -414,-126 -956,-284 -1916,-569 -2430,-721 -302,-89 -553,-165 -557,-168 -4,-4 20,-65 54,-136 34,-72 71,-160 83,-197 l 21,-66 44,19 c 383,160 1664,713 2740,1182 234,102 441,192 460,200 19,9 28,16 19,16 -9,1 -18,-1 -20,-3 z"
         id="path210"
         style="fill:#ffffff" /><path
         d="m 7950,5377 c 54,-31 2914,-1269 3224,-1396 18,-7 23,1 43,61 13,37 50,125 83,195 33,70 57,130 53,133 -5,4 -55,21 -113,37 -58,17 -472,140 -920,273 -448,133 -858,255 -910,270 -118,35 -1438,426 -1465,435 -13,4 -12,1 5,-8 z"
         id="path212"
         style="fill:#ffffff" /><path
         d="m 4666,4990 c -301,-209 -597,-415 -658,-457 l -111,-78 94,-89 c 140,-132 558,-506 567,-506 4,0 333,326 732,725 399,399 718,725 710,725 -8,0 -177,14 -375,30 -198,17 -372,30 -386,30 -18,0 -194,-116 -573,-380 z"
         id="path214"
         style="fill:#ffffff" /><path
         d="m 7165,5340 c -176,-16 -333,-29 -350,-29 -27,-1 36,-67 695,-726 399,-399 730,-724 736,-723 13,3 547,483 612,551 l 44,45 -509,353 c -279,194 -575,399 -656,456 -175,122 -108,113 -572,73 z"
         id="path216"
         style="fill:#ffffff" /><path
         d="m 3895,5314 c -431,-16 -800,-29 -1535,-54 -993,-35 -1061,-38 -1068,-45 -7,-6 -41,-626 -36,-634 3,-3 106,21 719,169 110,27 406,99 658,159 251,61 661,160 910,220 248,61 528,128 622,151 93,22 171,43 174,45 5,6 -10,6 -444,-11 z"
         id="path218"
         style="fill:#ffffff" /><path
         d="m 8460,5327 c 3,-3 174,-47 380,-96 206,-50 560,-136 785,-190 226,-55 457,-111 515,-125 58,-13 337,-81 620,-150 756,-183 781,-189 784,-185 2,2 -4,147 -12,321 l -16,317 -80,5 c -45,3 -162,8 -261,11 -99,3 -306,10 -460,15 -455,16 -1407,49 -1725,60 -162,5 -349,12 -415,16 -66,3 -118,3 -115,1 z"
         id="path220"
         style="fill:#ffffff" /><path
         d="M 4150,4966 C 3519,4698 2476,4256 1874,4001 l -276,-116 -104,-260 c -57,-143 -103,-263 -102,-266 3,-6 3409,1869 3425,1884 3,4 4,7 2,6 -2,0 -303,-127 -669,-283 z"
         id="path222"
         style="fill:#ffffff" /><path
         d="m 7990,5239 c 41,-28 3415,-1885 3418,-1880 1,3 -45,123 -102,266 l -104,259 -473,201 c -261,111 -762,323 -1114,472 -352,149 -849,360 -1105,469 -506,214 -542,229 -520,213 z"
         id="path224"
         style="fill:#ffffff" /><path
         d="m 6014,5097 c -16,-19 -259,-286 -539,-593 -281,-307 -595,-652 -698,-766 l -187,-208 93,-152 c 132,-216 447,-720 460,-736 12,-15 -5,-59 267,698 100,278 285,792 411,1144 127,351 228,640 226,643 -3,2 -18,-11 -33,-30 z"
         id="path226"
         style="fill:#ffffff" /><path
         d="m 6750,5129 c 0,-4 59,-170 131,-370 305,-849 635,-1767 697,-1941 37,-103 69,-188 72,-187 5,0 110,168 428,681 l 134,218 -178,197 c -270,298 -1212,1333 -1250,1373 -19,19 -34,32 -34,29 z"
         id="path228"
         style="fill:#ffffff" /><path
         d="m 5832,4027 c -172,-507 -312,-926 -312,-931 0,-5 93,87 208,204 145,149 209,222 215,244 4,17 39,247 78,511 38,264 83,572 100,684 16,112 29,205 27,206 -2,2 -144,-412 -316,-918 z"
         id="path230"
         style="fill:#ffffff" /><path
         d="m 6651,4948 c -1,-4 15,-114 34,-245 20,-131 67,-452 106,-712 l 69,-475 208,-210 c 114,-116 210,-212 213,-214 5,-2 -606,1808 -625,1853 -3,6 -5,7 -5,3 z"
         id="path232"
         style="fill:#ffffff" /><path
         d="m 3440,4291 c -216,-123 -713,-422 -1390,-836 -797,-487 -858,-525 -864,-540 -6,-18 -86,-658 -82,-662 2,-2 2461,2089 2491,2118 19,19 -4,7 -155,-80 z"
         id="path234"
         style="fill:#ffffff" /><path
         d="m 9240,4341 c 19,-16 579,-493 1245,-1059 665,-567 1210,-1030 1211,-1029 3,3 -61,541 -73,622 l -8,49 -197,122 c -383,237 -1208,741 -1598,974 -550,330 -670,396 -580,321 z"
         id="path236"
         style="fill:#ffffff" /><path
         d="m 3828,4285 c 16,-44 213,-579 437,-1189 320,-868 411,-1104 417,-1085 4,13 43,210 88,436 l 81,413 -517,742 c -284,409 -521,748 -526,753 -5,6 4,-26 20,-70 z"
         id="path238"
         style="fill:#ffffff" /><path
         d="m 8473,3610 -522,-749 85,-432 c 46,-238 86,-434 88,-436 5,-5 -45,-138 456,1222 230,626 418,1140 417,1142 -2,1 -237,-335 -524,-747 z"
         id="path240"
         style="fill:#ffffff" /><path
         d="m 3724,4225 c 3,-16 33,-212 66,-435 32,-223 118,-803 190,-1290 72,-487 140,-948 151,-1025 11,-77 23,-148 27,-159 6,-14 46,47 180,274 95,160 172,297 172,304 0,16 -778,2347 -786,2355 -3,3 -4,-7 0,-24 z"
         id="path242"
         style="fill:#ffffff" /><path
         d="m 8682,3074 c -217,-645 -392,-1179 -390,-1187 5,-23 342,-587 350,-587 4,0 8,10 8,22 0,12 31,233 70,492 38,259 128,869 200,1356 72,487 137,927 145,979 8,52 13,96 12,97 -1,1 -179,-526 -395,-1172 z"
         id="path244"
         style="fill:#ffffff" /><path
         d="M 3125,3808 C 2486,3237 1701,2540 1445,2315 c -137,-121 -251,-224 -253,-230 -7,-26 131,-524 160,-579 12,-23 -12,-49 223,235 228,275 738,909 1335,1659 282,355 528,664 547,688 19,23 33,42 31,42 -2,0 -166,-145 -363,-322 z"
         id="path246"
         style="fill:#ffffff" /><path
         d="m 9541,3840 c 814,-1025 1571,-1966 1763,-2194 56,-65 108,-128 117,-139 17,-20 17,-20 32,9 29,56 161,542 155,569 -2,7 -59,62 -128,121 -177,153 -917,810 -1574,1399 -307,275 -568,507 -579,515 -11,8 85,-118 214,-280 z"
         id="path248"
         style="fill:#ffffff" /><path
         d="m 3661,3930 c -3,-8 -398,-3155 -396,-3157 0,-1 160,81 353,184 310,164 352,189 352,210 0,20 -292,2658 -303,2738 -2,17 -5,28 -6,25 z"
         id="path250"
         style="fill:#ffffff" /><path
         d="m 8981,2535 c -85,-762 -152,-1387 -150,-1390 7,-7 703,-374 705,-372 4,5 -391,3147 -396,3147 -3,0 -74,-623 -159,-1385 z"
         id="path252"
         style="fill:#ffffff" /><path
         d="M 3273,3367 C 3201,3162 2941,2426 2695,1732 2449,1037 2250,467 2252,465 c 2,-1 142,-86 311,-189 192,-116 309,-181 311,-173 3,6 47,307 100,667 108,742 337,2302 396,2700 21,145 38,265 37,267 -2,1 -62,-165 -134,-370 z"
         id="path254"
         style="fill:#ffffff" /><path
         d="m 9394,3715 c 8,-43 21,-126 166,-1120 72,-489 167,-1135 211,-1435 44,-300 95,-653 115,-785 19,-132 37,-250 39,-262 5,-21 29,-8 312,162 169,102 309,187 311,190 3,2 -86,262 -198,577 -807,2285 -952,2694 -957,2698 -3,3 -3,-8 1,-25 z"
         id="path256"
         style="fill:#ffffff" /><path
         d="M 1745,1438 C 1267,910 874,475 872,471 868,459 1731,7 1740,16 c 8,9 881,2376 877,2379 -1,1 -393,-430 -872,-957 z"
         id="path258"
         style="fill:#ffffff" /><path
         d="m 10185,2385 c 4,-11 187,-508 406,-1105 220,-597 414,-1123 431,-1170 17,-47 35,-89 39,-94 9,-10 871,443 867,455 -2,4 -385,429 -853,945 -467,515 -860,948 -873,963 -19,21 -22,22 -17,6 z"
         id="path260"
         style="fill:#ffffff" /></g></g></svg>
